<?xml version="1.0" encoding="UTF-8"?><svg id="Layer_1" xmlns="http://www.w3.org/2000/svg" viewBox="0 0 499.28 499.28"><defs><style>.cls-1{fill:#fff;}.cls-2{fill:#530079;}</style></defs><circle class="cls-1" cx="249.64" cy="249.64" r="249.64"/><g id="Logo"><path class="cls-2" d="m467.15,249.7c.35,30.65-5.76,60.05-18.04,88.13-9.18,20.99-21.38,40.06-36.5,57.28-14.46,16.47-31,30.47-49.62,41.96-20.52,12.66-42.56,21.63-66.11,26.9-19.33,4.33-38.88,5.78-58.6,4.74-21.13-1.12-41.68-5.36-61.6-12.59-27.67-10.04-52.37-25.02-73.98-44.99-23.42-21.64-41.4-47.14-53.8-76.57-6.59-15.65-11.25-31.85-14.06-48.56-2.91-17.23-3.41-34.59-2.29-52.02,1.1-17.05,4.29-33.7,9.41-49.98,6.14-19.53,14.83-37.86,26.09-54.99,9.44-14.36,20.4-27.43,32.85-39.25,15.15-14.38,32.04-26.33,50.62-35.89,15.9-8.17,32.56-14.27,49.96-18.28,17.2-3.96,34.66-5.68,52.33-5.31,38.69.81,74.6,11.24,107.76,31.14,26.13,15.69,47.94,36.1,65.57,60.91,16.97,23.9,28.63,50.21,35.08,78.83,2.48,11.01,4.03,22.16,4.87,33.4.37,5.01.06,10.08.06,15.12h0Zm-354.19,107.41c1.04-.97,1.92-1.74,2.74-2.57,10.44-10.53,20.89-21.04,31.3-31.6,25.18-25.56,50.33-51.15,75.53-76.7,2.09-2.11,3.6-4.53,4.23-7.35.69-3.07,1.27-6.23,1.39-9.36.25-7.01.23-14.04.25-21.06.03-11.47.03-22.94.03-34.41v-84.25c0-4.54-.52-9.01-1.17-13.6-1.17-.07-2.05-.25-2.91-.16-5.78.66-11.63,1.03-17.32,2.15-16.38,3.2-31.43,9.85-45.59,18.56-18.25,11.24-34.06,25.28-47.7,41.83-22.88,27.77-35.71,59.59-38.66,95.42-1.32,16.04-.61,32.01,2.09,47.85,2.63,15.46,7.19,30.36,14.15,44.47,5.14,10.42,11.41,20.1,19.39,28.62.66.7,1.39,1.33,2.24,2.16h0Zm273.02-.11c1.02-.89,1.94-1.61,2.76-2.42,8.48-8.36,14.94-18.11,20.09-28.79,9.99-20.7,14.67-42.74,15.87-65.53.85-16.03-.23-31.98-3.4-47.76-3.66-18.19-10.04-35.33-19.59-51.23-15.42-25.68-35.78-46.64-60.82-63.02-14.5-9.48-30.06-16.61-47.11-20.23-5.83-1.24-11.72-1.7-17.65-1.9-3.8-.14-4.66.81-4.73,4.69v.6c0,50.43,0,100.86-.02,151.29,0,3.49.94,6.67,2.81,9.52,1.45,2.22,3.11,4.35,4.9,6.3,3.13,3.42,6.43,6.71,9.7,10.01,16.55,16.71,33.17,33.36,49.68,50.11,14.99,15.2,29.88,30.49,44.82,45.75.81.83,1.67,1.64,2.69,2.62v-.03Zm-113.41-49.98c-.93,3-.88,114.21,0,116.93,17.49-1.58,34.19-6.29,50.15-13.66,11.93-5.51,23.04-12.35,33.42-21.08-28.03-27.57-55.72-54.8-83.58-82.19h0Zm-128.85,82.67c16.4,13.23,34.61,22.68,54.59,28.71,12.36,3.74,24.75,5.88,28.43,5.13.04-.74.14-1.52.14-2.29-.05-37.78-.11-75.54-.18-113.32,0-.07-.1-.16-.18-.21-.08-.05-.16-.09-.25-.13-3.81,2.87-81.41,79.88-82.55,82.09h0Z"/></g></svg>