<?xml version="1.0" standalone="no"?>
<!DOCTYPE svg PUBLIC "-//W3C//DTD SVG 20010904//EN"
 "http://www.w3.org/TR/2001/REC-SVG-20010904/DTD/svg10.dtd">
<svg version="1.0" xmlns="http://www.w3.org/2000/svg"
 width="286.000000pt" height="500.000000pt" viewBox="0 0 286.000000 500.000000"
 preserveAspectRatio="xMidYMid meet">

<g transform="translate(0.000000,500.000000) scale(0.100000,-0.100000)"
fill="#530079" stroke="none">
<path d="M280 4987 c-109 -24 -199 -99 -248 -206 -22 -46 -26 -70 -26 -136 1
-157 -68 -78 1019 -1165 531 -531 965 -969 965 -975 0 -5 -434 -444 -964 -975
-732 -733 -968 -976 -984 -1010 -49 -103 -48 -219 1 -317 27 -52 105 -131 153
-155 94 -47 212 -49 310 -4 55 25 153 119 1161 1129 605 606 1113 1121 1127
1145 63 102 69 226 17 338 -26 56 -130 163 -1112 1148 -595 598 -1103 1102
-1128 1120 -88 63 -191 85 -291 63z"/>
</g>
</svg>
