<?xml version="1.0" encoding="UTF-8"?>
<svg id="Layer_1" xmlns="http://www.w3.org/2000/svg" viewBox="0 0 498 498">
    <path
    fill="#530079"
        d="m425.07,72.93C378.04,25.9,315.51,0,249,0S119.96,25.9,72.93,72.93,0,182.49,0,249s25.9,129.04,72.93,176.07c47.03,47.03,109.56,72.93,176.07,72.93s129.04-25.9,176.07-72.93c47.03-47.03,72.93-109.56,72.93-176.07s-25.9-129.04-72.93-176.07Zm-330.93,21.21c28.95-28.94,64.56-48.78,103.38-58.08-9.26,8.58-19.22,18.78-29.11,30.59-17.23,20.59-31.41,42.68-42.24,65.81-18.51-7.28-34.13-15.27-46.45-22.44,4.52-5.49,9.33-10.79,14.42-15.88Zm-31.95,40.4c16.7,9.94,34.36,18.59,52.71,25.83-8.1,23.74-12.86,48.38-14.21,73.63H30.51c2.38-35.6,13.27-69.54,31.68-99.46Zm-.84,227.53c-17.9-29.58-28.49-63.02-30.84-98.07h70.59c1.37,15.54,5.03,41.73,14.81,71.94-18.99,7.25-37.27,16-54.56,26.13Zm32.79,41.79c-5.48-5.48-10.64-11.2-15.45-17.14,12.75-7.3,28.83-15.36,47.82-22.61,9.29,21.59,20.79,41.6,34.3,59.7,10.11,13.54,21.37,26.02,33.7,37.39-37.65-9.59-72.17-29.15-100.37-57.34Zm139.86,51.21c-34.38-25.59-60.82-59.24-78.93-100.45,23.34-6.65,49.82-11.49,78.93-12.55v113Zm0-143.03c-30.37,1.01-60.38,5.81-89.64,14.34-8.34-25.83-11.74-48.39-13.12-62.38h102.76v48.04Zm0-78.04h-103.27c1.29-21.98,5.44-43.27,12.41-63.78,29.62,9.02,60.06,14.2,90.86,15.47v48.31Zm0-78.35c-29.35-1.33-55.99-6.48-79.36-13.4,9.5-19.61,21.76-38.41,36.77-56.34,15.17-18.13,30.57-32.08,42.59-41.74v111.48Zm201.82-21.1c18.4,29.92,29.29,63.85,31.67,99.45h-70.18c-1.35-25.23-6.1-49.86-14.2-73.58,18.24-7.18,35.85-15.82,52.71-25.87Zm-31.96-40.41c5.1,5.1,9.92,10.4,14.44,15.9-15.68,9.18-31.29,16.56-46.44,22.49-10.83-23.16-25.02-45.27-42.27-65.88-9.89-11.81-19.85-22.01-29.11-30.59,38.82,9.3,74.43,29.14,103.38,58.08Zm-139.86-49.97c12.02,9.66,27.42,23.61,42.59,41.74,15.01,17.93,27.27,36.73,36.77,56.34-30.8,9-58.46,12.37-79.36,13.38V44.17Zm0,141.51c21.54-.91,43.19-3.77,64.55-8.55,8.89-1.98,17.66-4.28,26.31-6.9,6.98,20.5,11.12,41.79,12.41,63.77h-103.27v-48.32Zm0,78.32h102.76c-1.41,14.28-4.92,37.47-13.63,63.96-9.04-2.76-18.21-5.18-27.5-7.25-20.4-4.55-41.06-7.38-61.63-8.4v-48.31Zm0,191.07v-112.71c20.95,1.21,48.16,4.79,78.26,13.76-18.08,40.53-44.3,73.67-78.26,98.95Zm139.86-51.21c-28.2,28.19-62.72,47.75-100.37,57.34,12.33-11.37,23.59-23.85,33.71-37.39,13.11-17.58,24.33-36.95,33.48-57.82,15.27,6.08,30.98,13.64,46.75,23.02-4.27,5.12-8.8,10.08-13.57,14.85Zm31.23-39.23c-17.14-10.39-35.06-19.31-53.65-26.71,10.27-31.05,14.06-58.04,15.46-73.92h70.59c-2.42,36.07-13.56,70.43-32.4,100.63Z" />
</svg>