<?xml version="1.0" encoding="UTF-8"?>
<svg id="Layer_1" xmlns="http://www.w3.org/2000/svg" viewBox="0 0 502.72 506.78">
    <defs>
        <style>.cls-1{fill:#530079;}</style>
    </defs>
    <g id="Logo">
        <path class="cls-1"
            d="m502.58,253.46c.4,35.4-6.65,69.36-20.83,101.79-10.6,24.24-24.69,46.27-42.16,66.16-16.7,19.02-35.8,35.19-57.31,48.46-23.7,14.62-49.16,24.98-76.36,31.07-22.32,5-44.9,6.67-67.68,5.47-24.41-1.29-48.14-6.19-71.14-14.54-31.96-11.6-60.48-28.9-85.44-51.96-27.05-24.99-47.82-54.44-62.14-88.43-7.61-18.07-12.99-36.79-16.24-56.09C-.08,275.49-.66,255.44.64,235.31c1.27-19.69,4.96-38.92,10.87-57.72,7.09-22.56,17.13-43.73,30.13-63.51,10.9-16.59,23.56-31.68,37.94-45.33,17.5-16.61,37-30.41,58.46-41.45,18.36-9.44,37.61-16.48,57.7-21.11C215.61,1.62,235.77-.37,256.18.06c44.69.94,86.16,12.98,124.46,35.97,30.18,18.12,55.37,41.69,75.73,70.35,19.6,27.6,33.07,57.99,40.52,91.05,2.86,12.72,4.65,25.59,5.62,38.57.43,5.79.07,11.64.07,17.46Zm-409.07,124.05c1.2-1.12,2.22-2.01,3.17-2.97,12.06-12.16,24.13-24.3,36.15-36.5,29.08-29.52,58.13-59.08,87.23-88.59,2.41-2.44,4.16-5.23,4.89-8.49.8-3.55,1.47-7.19,1.6-10.81.29-8.1.26-16.21.29-24.32.04-13.25.04-26.5.04-39.74,0-32.44,0-64.87,0-97.31,0-5.24-.6-10.41-1.35-15.71-1.35-.08-2.37-.29-3.36-.18-6.68.76-13.43,1.19-20,2.48-18.92,3.7-36.3,11.38-52.65,21.44-21.08,12.98-39.34,29.2-55.09,48.31-26.43,32.07-41.24,68.82-44.65,110.21-1.52,18.52-.71,36.97,2.41,55.27,3.04,17.86,8.3,35.07,16.34,51.36,5.94,12.04,13.18,23.22,22.39,33.05.76.81,1.6,1.54,2.59,2.49Zm315.33-.14c1.18-1.03,2.24-1.86,3.19-2.8,9.79-9.65,17.26-20.92,23.2-33.25,11.54-23.91,16.94-49.36,18.33-75.68.98-18.51-.26-36.93-3.93-55.16-4.23-21.01-11.6-40.8-22.63-59.17-17.81-29.66-41.33-53.87-70.25-72.78-16.75-10.95-34.72-19.18-54.41-23.36-6.73-1.43-13.54-1.96-20.38-2.2-4.39-.16-5.38.93-5.46,5.42,0,.23,0,.46,0,.69,0,58.24.01,116.49-.02,174.73,0,4.03,1.08,7.7,3.24,11,1.68,2.56,3.59,5.02,5.66,7.28,3.62,3.95,7.43,7.75,11.2,11.56,19.12,19.3,38.31,38.53,57.38,57.88,17.31,17.56,34.51,35.22,51.77,52.84.94.96,1.93,1.89,3.11,3.03Zm-130.98-57.72c-1.07,3.46-1.02,131.91,0,135.05,20.2-1.83,39.49-7.27,57.92-15.78,13.78-6.36,26.61-14.26,38.6-24.35-32.37-31.84-64.36-63.29-96.53-94.93Zm-148.82,95.47c18.94,15.28,39.97,26.19,63.05,33.16,14.28,4.32,28.59,6.79,32.84,5.93.05-.85.16-1.75.16-2.64-.06-43.63-.13-87.25-.21-130.88,0-.08-.12-.18-.21-.24-.09-.06-.19-.1-.29-.15-4.4,3.32-94.03,92.26-95.34,94.81Z" />
    </g>
</svg>
