<?xml version="1.0" standalone="no"?>
<!DOCTYPE svg PUBLIC "-//W3C//DTD SVG 20010904//EN"
 "http://www.w3.org/TR/2001/REC-SVG-20010904/DTD/svg10.dtd">
<svg version="1.0" xmlns="http://www.w3.org/2000/svg"
 width="500.000000pt" height="500.000000pt" viewBox="0 0 500.000000 500.000000"
 preserveAspectRatio="xMidYMid meet">

<g transform="translate(0.000000,500.000000) scale(0.100000,-0.100000)"
fill="#000000" stroke="none">
<path d="M2288 4990 c-534 -48 -1005 -248 -1428 -605 -139 -117 -324 -329
-444 -509 -199 -298 -327 -629 -392 -1015 -33 -195 -28 -540 11 -766 23 -133
73 -329 107 -420 17 -44 41 -107 53 -140 44 -116 165 -335 263 -475 144 -205
396 -460 582 -589 133 -92 202 -134 325 -196 77 -39 159 -78 182 -88 115 -49
375 -125 498 -146 59 -10 75 -12 220 -30 90 -11 380 -11 470 0 39 5 90 11 115
14 181 22 422 87 605 163 103 42 350 176 443 239 244 167 479 396 636 618 105
149 238 387 279 500 8 22 29 78 47 125 36 95 89 304 117 455 25 140 25 572 0
725 -97 580 -320 1021 -722 1425 -184 185 -378 327 -607 444 -351 180 -686
265 -1083 275 -99 3 -224 1 -277 -4z m-84 -1132 c35 -11 128 -100 645 -620
333 -334 614 -622 624 -639 13 -19 22 -55 25 -98 4 -56 1 -74 -18 -111 -34
-67 -1169 -1203 -1234 -1235 -82 -41 -177 -31 -249 25 -82 65 -108 201 -55
291 26 44 153 175 704 730 156 158 284 291 284 296 0 6 -225 233 -500 506
-368 364 -506 508 -520 539 -37 82 -23 178 37 248 63 73 156 98 257 68z"/>
</g>
</svg>
